<svg width="1237" height="483" viewBox="0 0 1237 483" fill="none" xmlns="http://www.w3.org/2000/svg">
<g clip-path="url(#clip0_1_4379)">
<mask id="path-3-inside-1_1_4379" fill="white">
<path d="M-48 0H48V96H-48V0Z"/>
</mask>
<path d="M48 96V97H49V96H48ZM47 0V96H49V0H47ZM48 95H-48V97H48V95Z" fill="#D0D5DD" fill-opacity="0.32" mask="url(#path-3-inside-1_1_4379)"/>
<mask id="path-5-inside-2_1_4379" fill="white">
<path d="M48 0H144V96H48V0Z"/>
</mask>
<path d="M144 96V97H145V96H144ZM143 0V96H145V0H143ZM144 95H48V97H144V95Z" fill="#D0D5DD" fill-opacity="0.32" mask="url(#path-5-inside-2_1_4379)"/>
<mask id="path-7-inside-3_1_4379" fill="white">
<path d="M144 0H240V96H144V0Z"/>
</mask>
<path d="M240 96V97H241V96H240ZM239 0V96H241V0H239ZM240 95H144V97H240V95Z" fill="#D0D5DD" fill-opacity="0.32" mask="url(#path-7-inside-3_1_4379)"/>
<mask id="path-9-inside-4_1_4379" fill="white">
<path d="M240 0H336V96H240V0Z"/>
</mask>
<path d="M336 96V97H337V96H336ZM335 0V96H337V0H335ZM336 95H240V97H336V95Z" fill="#D0D5DD" fill-opacity="0.32" mask="url(#path-9-inside-4_1_4379)"/>
<mask id="path-11-inside-5_1_4379" fill="white">
<path d="M336 0H432V96H336V0Z"/>
</mask>
<path d="M432 96V97H433V96H432ZM431 0V96H433V0H431ZM432 95H336V97H432V95Z" fill="#D0D5DD" fill-opacity="0.32" mask="url(#path-11-inside-5_1_4379)"/>
<mask id="path-13-inside-6_1_4379" fill="white">
<path d="M432 0H528V96H432V0Z"/>
</mask>
<path d="M528 96V97H529V96H528ZM527 0V96H529V0H527ZM528 95H432V97H528V95Z" fill="#D0D5DD" fill-opacity="0.32" mask="url(#path-13-inside-6_1_4379)"/>
<mask id="path-15-inside-7_1_4379" fill="white">
<path d="M528 0H624V96H528V0Z"/>
</mask>
<path d="M624 96V97H625V96H624ZM623 0V96H625V0H623ZM624 95H528V97H624V95Z" fill="#D0D5DD" fill-opacity="0.32" mask="url(#path-15-inside-7_1_4379)"/>
<mask id="path-17-inside-8_1_4379" fill="white">
<path d="M624 0H720V96H624V0Z"/>
</mask>
<path d="M720 96V97H721V96H720ZM719 0V96H721V0H719ZM720 95H624V97H720V95Z" fill="#D0D5DD" fill-opacity="0.32" mask="url(#path-17-inside-8_1_4379)"/>
<mask id="path-19-inside-9_1_4379" fill="white">
<path d="M720 0H816V96H720V0Z"/>
</mask>
<path d="M816 96V97H817V96H816ZM815 0V96H817V0H815ZM816 95H720V97H816V95Z" fill="#D0D5DD" fill-opacity="0.32" mask="url(#path-19-inside-9_1_4379)"/>
<mask id="path-21-inside-10_1_4379" fill="white">
<path d="M816 0H912V96H816V0Z"/>
</mask>
<path d="M912 96V97H913V96H912ZM911 0V96H913V0H911ZM912 95H816V97H912V95Z" fill="#D0D5DD" fill-opacity="0.32" mask="url(#path-21-inside-10_1_4379)"/>
<mask id="path-23-inside-11_1_4379" fill="white">
<path d="M912 0H1008V96H912V0Z"/>
</mask>
<path d="M1008 96V97H1009V96H1008ZM1007 0V96H1009V0H1007ZM1008 95H912V97H1008V95Z" fill="#D0D5DD" fill-opacity="0.32" mask="url(#path-23-inside-11_1_4379)"/>
<mask id="path-25-inside-12_1_4379" fill="white">
<path d="M1008 0H1104V96H1008V0Z"/>
</mask>
<path d="M1104 96V97H1105V96H1104ZM1103 0V96H1105V0H1103ZM1104 95H1008V97H1104V95Z" fill="#D0D5DD" fill-opacity="0.32" mask="url(#path-25-inside-12_1_4379)"/>
<mask id="path-27-inside-13_1_4379" fill="white">
<path d="M1104 0H1200V96H1104V0Z"/>
</mask>
<path d="M1200 96V97H1201V96H1200ZM1199 0V96H1201V0H1199ZM1200 95H1104V97H1200V95Z" fill="#D0D5DD" fill-opacity="0.32" mask="url(#path-27-inside-13_1_4379)"/>
<mask id="path-29-inside-14_1_4379" fill="white">
<path d="M1200 0H1296V96H1200V0Z"/>
</mask>
<path d="M1296 96V97H1297V96H1296ZM1295 0V96H1297V0H1295ZM1296 95H1200V97H1296V95Z" fill="#D0D5DD" fill-opacity="0.32" mask="url(#path-29-inside-14_1_4379)"/>
<mask id="path-31-inside-15_1_4379" fill="white">
<path d="M-48 96H48V192H-48V96Z"/>
</mask>
<path d="M48 192V193H49V192H48ZM47 96V192H49V96H47ZM48 191H-48V193H48V191Z" fill="#D0D5DD" fill-opacity="0.32" mask="url(#path-31-inside-15_1_4379)"/>
<mask id="path-33-inside-16_1_4379" fill="white">
<path d="M48 96H144V192H48V96Z"/>
</mask>
<path d="M144 192V193H145V192H144ZM143 96V192H145V96H143ZM144 191H48V193H144V191Z" fill="#D0D5DD" fill-opacity="0.32" mask="url(#path-33-inside-16_1_4379)"/>
<mask id="path-35-inside-17_1_4379" fill="white">
<path d="M144 96H240V192H144V96Z"/>
</mask>
<path d="M144 96H240V192H144V96Z" fill="#F2F4F7" fill-opacity="0.1"/>
<path d="M240 192V193H241V192H240ZM239 96V192H241V96H239ZM240 191H144V193H240V191Z" fill="#D0D5DD" fill-opacity="0.32" mask="url(#path-35-inside-17_1_4379)"/>
<mask id="path-37-inside-18_1_4379" fill="white">
<path d="M240 96H336V192H240V96Z"/>
</mask>
<path d="M336 192V193H337V192H336ZM335 96V192H337V96H335ZM336 191H240V193H336V191Z" fill="#D0D5DD" fill-opacity="0.32" mask="url(#path-37-inside-18_1_4379)"/>
<mask id="path-39-inside-19_1_4379" fill="white">
<path d="M336 96H432V192H336V96Z"/>
</mask>
<path d="M432 192V193H433V192H432ZM431 96V192H433V96H431ZM432 191H336V193H432V191Z" fill="#D0D5DD" fill-opacity="0.32" mask="url(#path-39-inside-19_1_4379)"/>
<mask id="path-41-inside-20_1_4379" fill="white">
<path d="M432 96H528V192H432V96Z"/>
</mask>
<path d="M528 192V193H529V192H528ZM527 96V192H529V96H527ZM528 191H432V193H528V191Z" fill="#D0D5DD" fill-opacity="0.32" mask="url(#path-41-inside-20_1_4379)"/>
<mask id="path-43-inside-21_1_4379" fill="white">
<path d="M528 96H624V192H528V96Z"/>
</mask>
<path d="M624 192V193H625V192H624ZM623 96V192H625V96H623ZM624 191H528V193H624V191Z" fill="#D0D5DD" fill-opacity="0.32" mask="url(#path-43-inside-21_1_4379)"/>
<mask id="path-45-inside-22_1_4379" fill="white">
<path d="M624 96H720V192H624V96Z"/>
</mask>
<path d="M720 192V193H721V192H720ZM719 96V192H721V96H719ZM720 191H624V193H720V191Z" fill="#D0D5DD" fill-opacity="0.32" mask="url(#path-45-inside-22_1_4379)"/>
<mask id="path-47-inside-23_1_4379" fill="white">
<path d="M720 96H816V192H720V96Z"/>
</mask>
<path d="M816 192V193H817V192H816ZM815 96V192H817V96H815ZM816 191H720V193H816V191Z" fill="#D0D5DD" fill-opacity="0.32" mask="url(#path-47-inside-23_1_4379)"/>
<mask id="path-49-inside-24_1_4379" fill="white">
<path d="M816 96H912V192H816V96Z"/>
</mask>
<path d="M912 192V193H913V192H912ZM911 96V192H913V96H911ZM912 191H816V193H912V191Z" fill="#D0D5DD" fill-opacity="0.32" mask="url(#path-49-inside-24_1_4379)"/>
<mask id="path-51-inside-25_1_4379" fill="white">
<path d="M912 96H1008V192H912V96Z"/>
</mask>
<path d="M1008 192V193H1009V192H1008ZM1007 96V192H1009V96H1007ZM1008 191H912V193H1008V191Z" fill="#D0D5DD" fill-opacity="0.32" mask="url(#path-51-inside-25_1_4379)"/>
<mask id="path-53-inside-26_1_4379" fill="white">
<path d="M1008 96H1104V192H1008V96Z"/>
</mask>
<path d="M1008 96H1104V192H1008V96Z" fill="#F2F4F7" fill-opacity="0.1"/>
<path d="M1104 192V193H1105V192H1104ZM1103 96V192H1105V96H1103ZM1104 191H1008V193H1104V191Z" fill="#D0D5DD" fill-opacity="0.32" mask="url(#path-53-inside-26_1_4379)"/>
<mask id="path-55-inside-27_1_4379" fill="white">
<path d="M1104 96H1200V192H1104V96Z"/>
</mask>
<path d="M1200 192V193H1201V192H1200ZM1199 96V192H1201V96H1199ZM1200 191H1104V193H1200V191Z" fill="#D0D5DD" fill-opacity="0.32" mask="url(#path-55-inside-27_1_4379)"/>
<mask id="path-57-inside-28_1_4379" fill="white">
<path d="M1200 96H1296V192H1200V96Z"/>
</mask>
<path d="M1296 192V193H1297V192H1296ZM1295 96V192H1297V96H1295ZM1296 191H1200V193H1296V191Z" fill="#D0D5DD" fill-opacity="0.32" mask="url(#path-57-inside-28_1_4379)"/>
<mask id="path-59-inside-29_1_4379" fill="white">
<path d="M-48 192H48V288H-48V192Z"/>
</mask>
<path d="M48 288V289H49V288H48ZM47 192V288H49V192H47ZM48 287H-48V289H48V287Z" fill="#D0D5DD" fill-opacity="0.32" mask="url(#path-59-inside-29_1_4379)"/>
<mask id="path-61-inside-30_1_4379" fill="white">
<path d="M48 192H144V288H48V192Z"/>
</mask>
<path d="M144 288V289H145V288H144ZM143 192V288H145V192H143ZM144 287H48V289H144V287Z" fill="#D0D5DD" fill-opacity="0.32" mask="url(#path-61-inside-30_1_4379)"/>
<mask id="path-63-inside-31_1_4379" fill="white">
<path d="M144 192H240V288H144V192Z"/>
</mask>
<path d="M240 288V289H241V288H240ZM239 192V288H241V192H239ZM240 287H144V289H240V287Z" fill="#D0D5DD" fill-opacity="0.32" mask="url(#path-63-inside-31_1_4379)"/>
<mask id="path-65-inside-32_1_4379" fill="white">
<path d="M240 192H336V288H240V192Z"/>
</mask>
<path d="M336 288V289H337V288H336ZM335 192V288H337V192H335ZM336 287H240V289H336V287Z" fill="#D0D5DD" fill-opacity="0.32" mask="url(#path-65-inside-32_1_4379)"/>
<mask id="path-67-inside-33_1_4379" fill="white">
<path d="M336 192H432V288H336V192Z"/>
</mask>
<path d="M336 192H432V288H336V192Z" fill="#F2F4F7" fill-opacity="0.1"/>
<path d="M432 288V289H433V288H432ZM431 192V288H433V192H431ZM432 287H336V289H432V287Z" fill="#D0D5DD" fill-opacity="0.32" mask="url(#path-67-inside-33_1_4379)"/>
<mask id="path-69-inside-34_1_4379" fill="white">
<path d="M432 192H528V288H432V192Z"/>
</mask>
<path d="M528 288V289H529V288H528ZM527 192V288H529V192H527ZM528 287H432V289H528V287Z" fill="#D0D5DD" fill-opacity="0.32" mask="url(#path-69-inside-34_1_4379)"/>
<mask id="path-71-inside-35_1_4379" fill="white">
<path d="M528 192H624V288H528V192Z"/>
</mask>
<path d="M624 288V289H625V288H624ZM623 192V288H625V192H623ZM624 287H528V289H624V287Z" fill="#D0D5DD" fill-opacity="0.32" mask="url(#path-71-inside-35_1_4379)"/>
<mask id="path-73-inside-36_1_4379" fill="white">
<path d="M624 192H720V288H624V192Z"/>
</mask>
<path d="M720 288V289H721V288H720ZM719 192V288H721V192H719ZM720 287H624V289H720V287Z" fill="#D0D5DD" fill-opacity="0.32" mask="url(#path-73-inside-36_1_4379)"/>
<mask id="path-75-inside-37_1_4379" fill="white">
<path d="M720 192H816V288H720V192Z"/>
</mask>
<path d="M720 192H816V288H720V192Z" fill="#F2F4F7" fill-opacity="0.1"/>
<path d="M816 288V289H817V288H816ZM815 192V288H817V192H815ZM816 287H720V289H816V287Z" fill="#D0D5DD" fill-opacity="0.32" mask="url(#path-75-inside-37_1_4379)"/>
<mask id="path-77-inside-38_1_4379" fill="white">
<path d="M816 192H912V288H816V192Z"/>
</mask>
<path d="M912 288V289H913V288H912ZM911 192V288H913V192H911ZM912 287H816V289H912V287Z" fill="#D0D5DD" fill-opacity="0.32" mask="url(#path-77-inside-38_1_4379)"/>
<mask id="path-79-inside-39_1_4379" fill="white">
<path d="M912 192H1008V288H912V192Z"/>
</mask>
<path d="M1008 288V289H1009V288H1008ZM1007 192V288H1009V192H1007ZM1008 287H912V289H1008V287Z" fill="#D0D5DD" fill-opacity="0.32" mask="url(#path-79-inside-39_1_4379)"/>
<mask id="path-81-inside-40_1_4379" fill="white">
<path d="M1008 192H1104V288H1008V192Z"/>
</mask>
<path d="M1104 288V289H1105V288H1104ZM1103 192V288H1105V192H1103ZM1104 287H1008V289H1104V287Z" fill="#D0D5DD" fill-opacity="0.32" mask="url(#path-81-inside-40_1_4379)"/>
<mask id="path-83-inside-41_1_4379" fill="white">
<path d="M1104 192H1200V288H1104V192Z"/>
</mask>
<path d="M1200 288V289H1201V288H1200ZM1199 192V288H1201V192H1199ZM1200 287H1104V289H1200V287Z" fill="#D0D5DD" fill-opacity="0.32" mask="url(#path-83-inside-41_1_4379)"/>
<mask id="path-85-inside-42_1_4379" fill="white">
<path d="M1200 192H1296V288H1200V192Z"/>
</mask>
<path d="M1296 288V289H1297V288H1296ZM1295 192V288H1297V192H1295ZM1296 287H1200V289H1296V287Z" fill="#D0D5DD" fill-opacity="0.32" mask="url(#path-85-inside-42_1_4379)"/>
<mask id="path-87-inside-43_1_4379" fill="white">
<path d="M-48 288H48V384H-48V288Z"/>
</mask>
<path d="M48 384V385H49V384H48ZM47 288V384H49V288H47ZM48 383H-48V385H48V383Z" fill="#D0D5DD" fill-opacity="0.32" mask="url(#path-87-inside-43_1_4379)"/>
<mask id="path-89-inside-44_1_4379" fill="white">
<path d="M48 288H144V384H48V288Z"/>
</mask>
<path d="M144 384V385H145V384H144ZM143 288V384H145V288H143ZM144 383H48V385H144V383Z" fill="#D0D5DD" fill-opacity="0.32" mask="url(#path-89-inside-44_1_4379)"/>
<mask id="path-91-inside-45_1_4379" fill="white">
<path d="M144 288H240V384H144V288Z"/>
</mask>
<path d="M240 384V385H241V384H240ZM239 288V384H241V288H239ZM240 383H144V385H240V383Z" fill="#D0D5DD" fill-opacity="0.32" mask="url(#path-91-inside-45_1_4379)"/>
<mask id="path-93-inside-46_1_4379" fill="white">
<path d="M240 288H336V384H240V288Z"/>
</mask>
<path d="M336 384V385H337V384H336ZM335 288V384H337V288H335ZM336 383H240V385H336V383Z" fill="#D0D5DD" fill-opacity="0.32" mask="url(#path-93-inside-46_1_4379)"/>
<mask id="path-95-inside-47_1_4379" fill="white">
<path d="M336 288H432V384H336V288Z"/>
</mask>
<path d="M432 384V385H433V384H432ZM431 288V384H433V288H431ZM432 383H336V385H432V383Z" fill="#D0D5DD" fill-opacity="0.32" mask="url(#path-95-inside-47_1_4379)"/>
<mask id="path-97-inside-48_1_4379" fill="white">
<path d="M432 288H528V384H432V288Z"/>
</mask>
<path d="M528 384V385H529V384H528ZM527 288V384H529V288H527ZM528 383H432V385H528V383Z" fill="#D0D5DD" fill-opacity="0.32" mask="url(#path-97-inside-48_1_4379)"/>
<mask id="path-99-inside-49_1_4379" fill="white">
<path d="M528 288H624V384H528V288Z"/>
</mask>
<path d="M624 384V385H625V384H624ZM623 288V384H625V288H623ZM624 383H528V385H624V383Z" fill="#D0D5DD" fill-opacity="0.32" mask="url(#path-99-inside-49_1_4379)"/>
<mask id="path-101-inside-50_1_4379" fill="white">
<path d="M624 288H720V384H624V288Z"/>
</mask>
<path d="M720 384V385H721V384H720ZM719 288V384H721V288H719ZM720 383H624V385H720V383Z" fill="#D0D5DD" fill-opacity="0.32" mask="url(#path-101-inside-50_1_4379)"/>
<mask id="path-103-inside-51_1_4379" fill="white">
<path d="M720 288H816V384H720V288Z"/>
</mask>
<path d="M816 384V385H817V384H816ZM815 288V384H817V288H815ZM816 383H720V385H816V383Z" fill="#D0D5DD" fill-opacity="0.32" mask="url(#path-103-inside-51_1_4379)"/>
<mask id="path-105-inside-52_1_4379" fill="white">
<path d="M816 288H912V384H816V288Z"/>
</mask>
<path d="M912 384V385H913V384H912ZM911 288V384H913V288H911ZM912 383H816V385H912V383Z" fill="#D0D5DD" fill-opacity="0.32" mask="url(#path-105-inside-52_1_4379)"/>
<mask id="path-107-inside-53_1_4379" fill="white">
<path d="M912 288H1008V384H912V288Z"/>
</mask>
<path d="M1008 384V385H1009V384H1008ZM1007 288V384H1009V288H1007ZM1008 383H912V385H1008V383Z" fill="#D0D5DD" fill-opacity="0.32" mask="url(#path-107-inside-53_1_4379)"/>
<mask id="path-109-inside-54_1_4379" fill="white">
<path d="M1008 288H1104V384H1008V288Z"/>
</mask>
<path d="M1008 288H1104V384H1008V288Z" fill="#F2F4F7" fill-opacity="0.1"/>
<path d="M1104 384V385H1105V384H1104ZM1103 288V384H1105V288H1103ZM1104 383H1008V385H1104V383Z" fill="#D0D5DD" fill-opacity="0.32" mask="url(#path-109-inside-54_1_4379)"/>
<mask id="path-111-inside-55_1_4379" fill="white">
<path d="M1104 288H1200V384H1104V288Z"/>
</mask>
<path d="M1200 384V385H1201V384H1200ZM1199 288V384H1201V288H1199ZM1200 383H1104V385H1200V383Z" fill="#D0D5DD" fill-opacity="0.32" mask="url(#path-111-inside-55_1_4379)"/>
<mask id="path-113-inside-56_1_4379" fill="white">
<path d="M1200 288H1296V384H1200V288Z"/>
</mask>
<path d="M1296 384V385H1297V384H1296ZM1295 288V384H1297V288H1295ZM1296 383H1200V385H1296V383Z" fill="#D0D5DD" fill-opacity="0.32" mask="url(#path-113-inside-56_1_4379)"/>
<mask id="path-115-inside-57_1_4379" fill="white">
<path d="M-48 384H48V480H-48V384Z"/>
</mask>
<path d="M48 480V481H49V480H48ZM47 384V480H49V384H47ZM48 479H-48V481H48V479Z" fill="#D0D5DD" fill-opacity="0.32" mask="url(#path-115-inside-57_1_4379)"/>
<mask id="path-117-inside-58_1_4379" fill="white">
<path d="M48 384H144V480H48V384Z"/>
</mask>
<path d="M144 480V481H145V480H144ZM143 384V480H145V384H143ZM144 479H48V481H144V479Z" fill="#D0D5DD" fill-opacity="0.32" mask="url(#path-117-inside-58_1_4379)"/>
<mask id="path-119-inside-59_1_4379" fill="white">
<path d="M144 384H240V480H144V384Z"/>
</mask>
<path d="M240 480V481H241V480H240ZM239 384V480H241V384H239ZM240 479H144V481H240V479Z" fill="#D0D5DD" fill-opacity="0.32" mask="url(#path-119-inside-59_1_4379)"/>
<mask id="path-121-inside-60_1_4379" fill="white">
<path d="M240 384H336V480H240V384Z"/>
</mask>
<path d="M336 480V481H337V480H336ZM335 384V480H337V384H335ZM336 479H240V481H336V479Z" fill="#D0D5DD" fill-opacity="0.32" mask="url(#path-121-inside-60_1_4379)"/>
<mask id="path-123-inside-61_1_4379" fill="white">
<path d="M336 384H432V480H336V384Z"/>
</mask>
<path d="M432 480V481H433V480H432ZM431 384V480H433V384H431ZM432 479H336V481H432V479Z" fill="#D0D5DD" fill-opacity="0.32" mask="url(#path-123-inside-61_1_4379)"/>
<mask id="path-125-inside-62_1_4379" fill="white">
<path d="M432 384H528V480H432V384Z"/>
</mask>
<path d="M432 384H528V480H432V384Z" fill="#F2F4F7" fill-opacity="0.1"/>
<path d="M528 480V481H529V480H528ZM527 384V480H529V384H527ZM528 479H432V481H528V479Z" fill="#D0D5DD" fill-opacity="0.32" mask="url(#path-125-inside-62_1_4379)"/>
<mask id="path-127-inside-63_1_4379" fill="white">
<path d="M528 384H624V480H528V384Z"/>
</mask>
<path d="M624 480V481H625V480H624ZM623 384V480H625V384H623ZM624 479H528V481H624V479Z" fill="#D0D5DD" fill-opacity="0.32" mask="url(#path-127-inside-63_1_4379)"/>
<mask id="path-129-inside-64_1_4379" fill="white">
<path d="M624 384H720V480H624V384Z"/>
</mask>
<path d="M720 480V481H721V480H720ZM719 384V480H721V384H719ZM720 479H624V481H720V479Z" fill="#D0D5DD" fill-opacity="0.32" mask="url(#path-129-inside-64_1_4379)"/>
<mask id="path-131-inside-65_1_4379" fill="white">
<path d="M720 384H816V480H720V384Z"/>
</mask>
<path d="M816 480V481H817V480H816ZM815 384V480H817V384H815ZM816 479H720V481H816V479Z" fill="#D0D5DD" fill-opacity="0.32" mask="url(#path-131-inside-65_1_4379)"/>
<mask id="path-133-inside-66_1_4379" fill="white">
<path d="M816 384H912V480H816V384Z"/>
</mask>
<path d="M912 480V481H913V480H912ZM911 384V480H913V384H911ZM912 479H816V481H912V479Z" fill="#D0D5DD" fill-opacity="0.32" mask="url(#path-133-inside-66_1_4379)"/>
<mask id="path-135-inside-67_1_4379" fill="white">
<path d="M912 384H1008V480H912V384Z"/>
</mask>
<path d="M1008 480V481H1009V480H1008ZM1007 384V480H1009V384H1007ZM1008 479H912V481H1008V479Z" fill="#D0D5DD" fill-opacity="0.32" mask="url(#path-135-inside-67_1_4379)"/>
<mask id="path-137-inside-68_1_4379" fill="white">
<path d="M1008 384H1104V480H1008V384Z"/>
</mask>
<path d="M1104 480V481H1105V480H1104ZM1103 384V480H1105V384H1103ZM1104 479H1008V481H1104V479Z" fill="#D0D5DD" fill-opacity="0.32" mask="url(#path-137-inside-68_1_4379)"/>
<mask id="path-139-inside-69_1_4379" fill="white">
<path d="M1104 384H1200V480H1104V384Z"/>
</mask>
<path d="M1200 480V481H1201V480H1200ZM1199 384V480H1201V384H1199ZM1200 479H1104V481H1200V479Z" fill="#D0D5DD" fill-opacity="0.32" mask="url(#path-139-inside-69_1_4379)"/>
<mask id="path-141-inside-70_1_4379" fill="white">
<path d="M1200 384H1296V480H1200V384Z"/>
</mask>
<path d="M1296 480V481H1297V480H1296ZM1295 384V480H1297V384H1295ZM1296 479H1200V481H1296V479Z" fill="#D0D5DD" fill-opacity="0.32" mask="url(#path-141-inside-70_1_4379)"/>
<mask id="path-143-inside-71_1_4379" fill="white">
<path d="M-48 480H48V576H-48V480Z"/>
</mask>
<path d="M48 576V577H49V576H48ZM47 480V576H49V480H47ZM48 575H-48V577H48V575Z" fill="#D0D5DD" fill-opacity="0.32" mask="url(#path-143-inside-71_1_4379)"/>
<mask id="path-145-inside-72_1_4379" fill="white">
<path d="M48 480H144V576H48V480Z"/>
</mask>
<path d="M144 576V577H145V576H144ZM143 480V576H145V480H143ZM144 575H48V577H144V575Z" fill="#D0D5DD" fill-opacity="0.32" mask="url(#path-145-inside-72_1_4379)"/>
<mask id="path-147-inside-73_1_4379" fill="white">
<path d="M144 480H240V576H144V480Z"/>
</mask>
<path d="M144 480H240V576H144V480Z" fill="#F2F4F7" fill-opacity="0.1"/>
<path d="M240 576V577H241V576H240ZM239 480V576H241V480H239ZM240 575H144V577H240V575Z" fill="#D0D5DD" fill-opacity="0.32" mask="url(#path-147-inside-73_1_4379)"/>
<mask id="path-149-inside-74_1_4379" fill="white">
<path d="M240 480H336V576H240V480Z"/>
</mask>
<path d="M336 576V577H337V576H336ZM335 480V576H337V480H335ZM336 575H240V577H336V575Z" fill="#D0D5DD" fill-opacity="0.32" mask="url(#path-149-inside-74_1_4379)"/>
<mask id="path-151-inside-75_1_4379" fill="white">
<path d="M336 480H432V576H336V480Z"/>
</mask>
<path d="M432 576V577H433V576H432ZM431 480V576H433V480H431ZM432 575H336V577H432V575Z" fill="#D0D5DD" fill-opacity="0.32" mask="url(#path-151-inside-75_1_4379)"/>
<mask id="path-153-inside-76_1_4379" fill="white">
<path d="M432 480H528V576H432V480Z"/>
</mask>
<path d="M528 576V577H529V576H528ZM527 480V576H529V480H527ZM528 575H432V577H528V575Z" fill="#D0D5DD" fill-opacity="0.32" mask="url(#path-153-inside-76_1_4379)"/>
<mask id="path-155-inside-77_1_4379" fill="white">
<path d="M528 480H624V576H528V480Z"/>
</mask>
<path d="M624 576V577H625V576H624ZM623 480V576H625V480H623ZM624 575H528V577H624V575Z" fill="#D0D5DD" fill-opacity="0.32" mask="url(#path-155-inside-77_1_4379)"/>
<mask id="path-157-inside-78_1_4379" fill="white">
<path d="M624 480H720V576H624V480Z"/>
</mask>
<path d="M720 576V577H721V576H720ZM719 480V576H721V480H719ZM720 575H624V577H720V575Z" fill="#D0D5DD" fill-opacity="0.32" mask="url(#path-157-inside-78_1_4379)"/>
<mask id="path-159-inside-79_1_4379" fill="white">
<path d="M720 480H816V576H720V480Z"/>
</mask>
<path d="M720 480H816V576H720V480Z" fill="#F2F4F7" fill-opacity="0.1"/>
<path d="M816 576V577H817V576H816ZM815 480V576H817V480H815ZM816 575H720V577H816V575Z" fill="#D0D5DD" fill-opacity="0.32" mask="url(#path-159-inside-79_1_4379)"/>
<mask id="path-161-inside-80_1_4379" fill="white">
<path d="M816 480H912V576H816V480Z"/>
</mask>
<path d="M912 576V577H913V576H912ZM911 480V576H913V480H911ZM912 575H816V577H912V575Z" fill="#D0D5DD" fill-opacity="0.32" mask="url(#path-161-inside-80_1_4379)"/>
<mask id="path-163-inside-81_1_4379" fill="white">
<path d="M912 480H1008V576H912V480Z"/>
</mask>
<path d="M1008 576V577H1009V576H1008ZM1007 480V576H1009V480H1007ZM1008 575H912V577H1008V575Z" fill="#D0D5DD" fill-opacity="0.32" mask="url(#path-163-inside-81_1_4379)"/>
<mask id="path-165-inside-82_1_4379" fill="white">
<path d="M1008 480H1104V576H1008V480Z"/>
</mask>
<path d="M1104 576V577H1105V576H1104ZM1103 480V576H1105V480H1103ZM1104 575H1008V577H1104V575Z" fill="#D0D5DD" fill-opacity="0.32" mask="url(#path-165-inside-82_1_4379)"/>
<mask id="path-167-inside-83_1_4379" fill="white">
<path d="M1104 480H1200V576H1104V480Z"/>
</mask>
<path d="M1200 576V577H1201V576H1200ZM1199 480V576H1201V480H1199ZM1200 575H1104V577H1200V575Z" fill="#D0D5DD" fill-opacity="0.32" mask="url(#path-167-inside-83_1_4379)"/>
<mask id="path-169-inside-84_1_4379" fill="white">
<path d="M1200 480H1296V576H1200V480Z"/>
</mask>
<path d="M1296 576V577H1297V576H1296ZM1295 480V576H1297V480H1295ZM1296 575H1200V577H1296V575Z" fill="#D0D5DD" fill-opacity="0.32" mask="url(#path-169-inside-84_1_4379)"/>
</g>
<rect x="-335.5" y="0.5" width="1919" height="1439" stroke="#D0D5DD" stroke-opacity="0.32"/>
<defs>
<clipPath id="clip0_1_4379">
<rect x="-336" width="1920" height="1440" fill="white"/>
</clipPath>
</defs>
</svg>
