<svg width="29" height="36" viewBox="0 0 29 36" fill="none" xmlns="http://www.w3.org/2000/svg">
<path d="M23.5018 19.0822C23.4631 14.7825 27.0233 12.6907 27.1861 12.5933C25.1698 9.65439 22.0446 9.25284 20.9464 9.22082C18.3216 8.94467 15.7756 10.791 14.4385 10.791C13.0747 10.791 11.0157 9.24751 8.7966 9.29286C5.94097 9.33689 3.26948 10.9898 1.8043 13.5565C-1.21947 18.79 1.03568 26.4808 3.93268 30.7111C5.38185 32.7842 7.07522 35.0962 9.29167 35.0148C11.4601 34.9267 12.2701 33.634 14.8868 33.634C17.4796 33.634 18.2402 35.0148 20.5007 34.9628C22.8279 34.9267 24.2931 32.8816 25.6916 30.7912C27.3662 28.4179 28.0388 26.0779 28.0655 25.9579C28.0121 25.9392 23.5472 24.2343 23.5018 19.0822ZM19.2317 6.43798C20.398 4.97986 21.1959 2.99612 20.9744 0.983032C19.2864 1.05774 17.1754 2.15033 15.9597 3.57644C14.8842 4.83312 13.9234 6.8929 14.1716 8.82995C16.0678 8.97136 18.0147 7.87343 19.2317 6.43798Z" fill="#171717"/>
</svg>
