<svg width="24" height="24" viewBox="0 0 24 24" fill="none" xmlns="http://www.w3.org/2000/svg">
<path fill-rule="evenodd" clip-rule="evenodd" d="M11.9015 2.84927L2.90854 6.44642L2.63 5.75006L2.90854 6.44642C2.90869 6.44636 2.90526 6.44773 2.89866 6.45183C2.89207 6.45594 2.8832 6.46222 2.87268 6.47126C2.85102 6.48987 2.82727 6.51595 2.80565 6.54802C2.78403 6.5801 2.76872 6.61197 2.75954 6.63906C2.75079 6.66488 2.75006 6.67891 2.75 6.68001C2.75 6.68009 2.75 6.68011 2.75 6.68006V10.0001C2.75 10.1359 2.86421 10.2501 3 10.2501H21C21.1358 10.2501 21.25 10.1359 21.25 10.0001V6.68006C21.25 6.68011 21.25 6.68009 21.25 6.68001C21.2499 6.67891 21.2492 6.66488 21.2405 6.63906C21.2313 6.61197 21.216 6.5801 21.1943 6.54802C21.1727 6.51595 21.149 6.48987 21.1273 6.47126C21.1168 6.46222 21.1079 6.45594 21.1013 6.45183C21.0947 6.44773 21.0913 6.44636 21.0915 6.44642L12.0985 2.84927C12.0957 2.84858 12.0899 2.84729 12.0808 2.84585C12.0598 2.84252 12.0317 2.84009 12 2.84009C11.9683 2.84009 11.9402 2.84252 11.9192 2.84585C11.9101 2.84729 11.9043 2.84858 11.9015 2.84927ZM12 1.34009C12.1938 1.34009 12.4313 1.36684 12.6485 1.45373L21.6485 5.0537L21.3759 5.73524L21.6485 5.0537C21.9916 5.1909 22.2592 5.44411 22.4382 5.7096C22.6169 5.97474 22.75 6.31568 22.75 6.68006V10.0001C22.75 10.9643 21.9642 11.7501 21 11.7501H3C2.03579 11.7501 1.25 10.9643 1.25 10.0001V6.68006C1.25 6.31568 1.38312 5.97474 1.56185 5.7096C1.74081 5.44411 2.00845 5.1909 2.35146 5.0537L2.35146 5.0537L11.3515 1.45373C11.5687 1.36684 11.8062 1.34009 12 1.34009Z" fill="#171717"/>
<path fill-rule="evenodd" clip-rule="evenodd" d="M3 18.75C2.86421 18.75 2.75 18.8642 2.75 19V21.25H21.25V19C21.25 18.8642 21.1358 18.75 21 18.75H3ZM1.25 19C1.25 18.0358 2.03579 17.25 3 17.25H21C21.9642 17.25 22.75 18.0358 22.75 19V22C22.75 22.4142 22.4142 22.75 22 22.75H2C1.58579 22.75 1.25 22.4142 1.25 22V19Z" fill="#171717"/>
<path fill-rule="evenodd" clip-rule="evenodd" d="M4 10.25C4.41421 10.25 4.75 10.5858 4.75 11V18C4.75 18.4142 4.41421 18.75 4 18.75C3.58579 18.75 3.25 18.4142 3.25 18V11C3.25 10.5858 3.58579 10.25 4 10.25Z" fill="#171717"/>
<path fill-rule="evenodd" clip-rule="evenodd" d="M8 10.25C8.41421 10.25 8.75 10.5858 8.75 11V18C8.75 18.4142 8.41421 18.75 8 18.75C7.58579 18.75 7.25 18.4142 7.25 18V11C7.25 10.5858 7.58579 10.25 8 10.25Z" fill="#171717"/>
<path fill-rule="evenodd" clip-rule="evenodd" d="M12 10.25C12.4142 10.25 12.75 10.5858 12.75 11V18C12.75 18.4142 12.4142 18.75 12 18.75C11.5858 18.75 11.25 18.4142 11.25 18V11C11.25 10.5858 11.5858 10.25 12 10.25Z" fill="#171717"/>
<path fill-rule="evenodd" clip-rule="evenodd" d="M16 10.25C16.4142 10.25 16.75 10.5858 16.75 11V18C16.75 18.4142 16.4142 18.75 16 18.75C15.5858 18.75 15.25 18.4142 15.25 18V11C15.25 10.5858 15.5858 10.25 16 10.25Z" fill="#171717"/>
<path fill-rule="evenodd" clip-rule="evenodd" d="M20 10.25C20.4142 10.25 20.75 10.5858 20.75 11V18C20.75 18.4142 20.4142 18.75 20 18.75C19.5858 18.75 19.25 18.4142 19.25 18V11C19.25 10.5858 19.5858 10.25 20 10.25Z" fill="#171717"/>
<path fill-rule="evenodd" clip-rule="evenodd" d="M0.25 22C0.25 21.5858 0.585786 21.25 1 21.25H23C23.4142 21.25 23.75 21.5858 23.75 22C23.75 22.4142 23.4142 22.75 23 22.75H1C0.585786 22.75 0.25 22.4142 0.25 22Z" fill="#171717"/>
<path fill-rule="evenodd" clip-rule="evenodd" d="M9.75 7C9.75 5.75735 10.7574 4.75 12 4.75C13.2426 4.75 14.25 5.75735 14.25 7C14.25 8.24265 13.2426 9.25 12 9.25C10.7574 9.25 9.75 8.24265 9.75 7ZM12 6.25C11.5858 6.25 11.25 6.58579 11.25 7C11.25 7.41421 11.5858 7.75 12 7.75C12.4142 7.75 12.75 7.41421 12.75 7C12.75 6.58579 12.4142 6.25 12 6.25Z" fill="#171717"/>
</svg>
